# xmcd
#
# Track frame offsets:
# 150
# 11955
# 24667
# 36710
# 50235
# 61185
# 75540
# 86292
# 99197
# 107365
# 117135
# 125155
# 135627
# 147145
# 161167
# 172502
# 182060
# 194472
# 208025
# 220485
# 235800
# 248635
# 262765
# 276302
#
# Disc length: 3821 seconds
#
# Revision: 2
# Processed by: cddbd v1.4PL0 Copyright (c) Steve Scherf et al.
# Submitted via: Axialis_AX_CDPlayer 2.6
#
DISCID=520eeb18
DTITLE=Dean Martin - Country Dino
DYEAR=1900
DGENRE=
TTITLE0=I'm So Lonesome I Could Cry
TTITLE1=Face In A Crowd
TTITLE2=Things
TTITLE3=Room Full of Roses
TTITLE4=I Walk the Line
TTITLE5=My Heart Cries for You
TTITLE6=Any Time
TTITLE7=Shutters and Boards
TTITLE8=Blue, Blue Day
TTITLE9=Singing the Blues
TTITLE10=Hey, Good Lookin'
TTITLE11=Ain't Gonna Try Anymore
TTITLE12=I'm Gonna Change Everything
TTITLE13=Candy Kisses
TTITLE14=Rockin' Alone (In An Old Rocking Chair)
TTITLE15=Just A Little Lovin'
TTITLE16=I Can't Help It (If I'm Still in Love with You)
TTITLE17=My Sugar's Gone
TTITLE18=Corrine, Corrina
TTITLE19=Take Good Care of Her
TTITLE20=The Middle of The Night is My Cryin' Time
TTITLE21=From Lover to Loser
TTITLE22=Bouquet of Roses
TTITLE23=Second Hand Rose (Second Hand Heart)
EXTD=
EXTT0=
EXTT1=
EXTT2=
EXTT3=
EXTT4=
EXTT5=
EXTT6=
EXTT7=
EXTT8=
EXTT9=
EXTT10=
EXTT11=
EXTT12=
EXTT13=
EXTT14=
EXTT15=
EXTT16=
EXTT17=
EXTT18=
EXTT19=
EXTT20=
EXTT21=
EXTT22=
EXTT23=
PLAYORDER=
